<svg width="112" height="136" viewBox="0 0 112 136" fill="none" xmlns="http://www.w3.org/2000/svg">
<path d="M12.2598 62.0868C21.5279 2.18524 60.4865 -14.0456 52.3908 50.0541M70.8839 59.8922C70.0486 60.5705 69.1823 61.2387 68.2891 61.903C70.6806 57.5893 72.7727 53.2059 74.5873 49.4041C74.8019 48.9545 75.0126 48.5131 75.2194 48.0809C76.4734 45.4605 77.5666 43.2181 78.5513 41.4571C78.7746 41.0578 78.9816 40.7036 79.1723 40.3906C79.2862 40.7824 79.4032 41.2236 79.5226 41.7188C80.4485 45.5603 79.9035 48.6638 78.4448 51.4564C76.9247 54.3666 74.3263 57.0962 70.8839 59.8922ZM80.6596 38.3915C80.6595 38.3919 80.6539 38.3964 80.6429 38.4039C80.6541 38.395 80.6596 38.3912 80.6596 38.3915Z" stroke="#B607B3" stroke-width="7"/>
<path d="M84.9806 122.707C82.9483 125.971 81.6594 125.849 81.4893 121.778M57.3893 46.1328C59.032 45.0039 60.6478 43.9609 62.2186 43.0187C60.9261 45.3841 59.7393 48.0694 58.4267 51.0391L58.3925 51.1166L58.3878 51.1272C57.0141 54.2352 55.4512 57.7714 53.3695 61.9348C50.3744 67.925 48.7245 72.1615 47.5571 75.159L47.554 75.167C46.2976 78.3933 45.8259 79.4484 45.2443 80.0834C44.88 80.4811 44.2463 80.9487 41.5181 81.5719C39.9555 81.9288 38.0481 82.2733 35.5271 82.7287C33.5505 83.0857 31.1966 83.5109 28.336 84.0636C24.5868 84.7879 23.1529 84.3535 22.8137 84.1723C22.7813 83.995 22.7602 83.5377 22.9811 82.6967C23.4458 80.9277 24.7182 78.4257 26.8571 75.3472C28.9556 72.3268 31.7346 68.9682 34.9723 65.514C41.4527 58.6002 49.5962 51.4885 57.3893 46.1328Z" stroke="#B607B3" stroke-width="7"/>
<path d="M27.2769 46.3734C61.256 -3.82129 103.414 -1.84544 68.7007 52.6457M71.1893 75.7189C67.0227 77.0915 62.653 78.2518 58.2979 79.2199C59.293 78.6463 60.2834 78.0592 61.2666 77.4628C67.4012 73.742 73.5021 69.5061 78.9702 65.7095C80.2816 64.799 81.5566 63.9137 82.7869 63.0669C85.9985 60.8564 88.8929 58.9158 91.4019 57.4092C93.9063 55.9055 95.7932 54.9797 97.0938 54.5902C97.0679 55.1061 96.9806 55.7995 96.7922 56.7053C95.9914 60.5553 93.2539 64.1412 88.6668 67.4355C84.0927 70.7203 78.0014 73.4748 71.1893 75.7189ZM98.0512 54.402C98.0485 54.405 98.0168 54.4071 97.9644 54.3995C98.0277 54.3952 98.0539 54.399 98.0512 54.402Z" stroke="url(#paint0_linear_23_6)" stroke-opacity="0.65" stroke-width="7"/>
<path d="M27.2769 46.3734C61.256 -3.82129 103.414 -1.84544 68.7007 52.6457M71.1893 75.7189C67.0227 77.0915 62.653 78.2518 58.2979 79.2199C59.293 78.6463 60.2834 78.0592 61.2666 77.4628C67.4012 73.742 73.5021 69.5061 78.9702 65.7095C80.2816 64.799 81.5566 63.9137 82.7869 63.0669C85.9985 60.8564 88.8929 58.9158 91.4019 57.4092C93.9063 55.9055 95.7932 54.9797 97.0938 54.5902C97.0679 55.1061 96.9806 55.7995 96.7922 56.7053C95.9914 60.5553 93.2539 64.1412 88.6668 67.4355C84.0927 70.7203 78.0014 73.4748 71.1893 75.7189ZM98.0512 54.402C98.0485 54.405 98.0168 54.4071 97.9644 54.3995C98.0277 54.3952 98.0539 54.399 98.0512 54.402Z" stroke="#B607B3" stroke-width="7"/>
<defs>
<linearGradient id="paint0_linear_23_6" x1="69.6026" y1="9.60879" x2="57.0422" y2="92.5615" gradientUnits="userSpaceOnUse">
<stop stop-color="#B607B3"/>
<stop offset="1" stop-color="#8F13EF"/>
</linearGradient>
</defs>
</svg>
